<?xml version="1.0" encoding="UTF-8"?>
<svg width="375px" height="60px" viewBox="0 0 375 60" version="1.1" xmlns="http://www.w3.org/2000/svg" xmlns:xlink="http://www.w3.org/1999/xlink">
    <!-- Generator: Sketch 53 (72520) - https://sketchapp.com -->
    <title>001010</title>
    <desc>Created with Sketch.</desc>
    <defs>
        <path d="M9.17160346,7.7573899 L11.7071068,10.2928932 C12.0976311,10.6834175 12.0976311,11.3165825 11.7071068,11.7071068 C11.3165825,12.0976311 10.6834175,12.0976311 10.2928932,11.7071068 L7.7573899,9.17160346 C6.96695688,9.69512324 6.01908233,10 5,10 C2.23857625,10 0,7.76142375 0,5 C0,2.23857625 2.23857625,0 5,0 C7.76142375,0 10,2.23857625 10,5 C10,6.01908233 9.69512324,6.96695688 9.17160346,7.7573899 Z M5,8 C6.65685425,8 8,6.65685425 8,5 C8,3.34314575 6.65685425,2 5,2 C3.34314575,2 2,3.34314575 2,5 C2,6.65685425 3.34314575,8 5,8 Z" id="path-1"></path>
        <path d="M6.5,7 C6.5,7.55228475 6.05228475,8 5.5,8 C4.94771525,8 4.5,7.55228475 4.5,7 L4.5,6.23181843 C4.5,5.5887231 4.98795196,5.05054452 5.62787539,4.98780017 C7.35723242,4.8180065 8,4.33059022 8,3.5 C8,1.9548699 4.8922442,1.50403287 3.77675575,2.87980196 C3.42892573,3.30879231 2.79918839,3.37458577 2.37019804,3.02675575 C1.94120769,2.67892573 1.87541423,2.04918839 2.22324425,1.62019804 C4.38313985,-1.04367319 10,-0.22884451 10,3.5 C10,5.36908343 8.72147503,6.50474686 6.5,6.88767491 L6.5,7 Z M5.50000024,9.39999962 C6.16274196,9.39999962 6.70000029,9.93725794 6.70000029,10.5999997 L6.70000029,10.7999995 C6.70000029,11.4627412 6.16274196,11.9999995 5.50000024,11.9999995 C4.83725851,11.9999995 4.30000019,11.4627412 4.30000019,10.7999995 L4.30000019,10.5999997 C4.30000019,9.93725794 4.83725851,9.39999962 5.50000024,9.39999962 Z" id="path-3"></path>
        <path d="M7,2.12601749 C7.36702099,2.22048216 7.71365561,2.36572819 8.03196735,2.55381909 L8.82842712,1.75735931 C9.21895142,1.36683502 9.8521164,1.36683502 10.2426407,1.75735931 C10.633165,2.1478836 10.633165,2.78104858 10.2426407,3.17157288 L9.44618091,3.96803265 C9.63427181,4.28634439 9.77951784,4.63297901 9.87398251,5 L11,5 C11.5522847,5 12,5.44771525 12,6 C12,6.55228475 11.5522847,7 11,7 L9.87398251,7 C9.77951784,7.36702099 9.63427181,7.71365561 9.44618091,8.03196735 L10.2426407,8.82842712 C10.633165,9.21895142 10.633165,9.8521164 10.2426407,10.2426407 C9.8521164,10.633165 9.21895142,10.633165 8.82842712,10.2426407 L8.03196735,9.44618091 C7.71365561,9.63427181 7.36702099,9.77951784 7,9.87398251 L7,11 C7,11.5522847 6.55228475,12 6,12 C5.44771525,12 5,11.5522847 5,11 L5,9.87398251 C4.63297901,9.77951784 4.28634439,9.63427181 3.96803265,9.44618091 L3.17157288,10.2426407 C2.78104858,10.633165 2.1478836,10.633165 1.75735931,10.2426407 C1.36683502,9.8521164 1.36683502,9.21895142 1.75735931,8.82842712 L2.55381909,8.03196735 C2.36572819,7.71365561 2.22048216,7.36702099 2.12601749,7 L1,7 C0.44771525,7 0,6.55228475 0,6 C0,5.44771525 0.44771525,5 1,5 L2.12601749,5 C2.22048216,4.63297901 2.36572819,4.28634439 2.55381909,3.96803265 L1.75735931,3.17157288 C1.36683502,2.78104858 1.36683502,2.1478836 1.75735931,1.75735931 C2.1478836,1.36683502 2.78104858,1.36683502 3.17157288,1.75735931 L3.96803265,2.55381909 C4.28634439,2.36572819 4.63297901,2.22048216 5,2.12601749 L5,1 C5,0.44771525 5.44771525,1.01453063e-16 6,0 C6.55228475,-1.01453063e-16 7,0.44771525 7,1 L7,2.12601749 Z M6,8 C7.1045695,8 8,7.1045695 8,6 C8,4.8954305 7.1045695,4 6,4 C4.8954305,4 4,4.8954305 4,6 C4,7.1045695 4.8954305,8 6,8 Z" id="path-5"></path>
    </defs>
    <g id="Page-1" stroke="none" stroke-width="1" fill="none" fill-rule="evenodd">
        <g id="001010">
            <rect id="Header" fill="#22272E" x="0" y="0" width="375" height="60" rx="4"></rect>
            <g id="Left" transform="translate(20.000000, 22.000000)">
                <path d="M4.99257281,15.9015351 C4.92949886,15.9623628 4.84534021,16 4.75289183,16 L0.354655764,16 C0.158766122,16 0,15.8321534 0,15.625339 C0,15.5221219 0.0396464777,15.4285993 0.103801687,15.3611185 L7.81107695,8.28609005 C7.88838758,8.21746873 7.93740504,8.11463181 7.93740504,7.99962933 C7.93740504,7.89089972 7.89343349,7.79319513 7.82351152,7.72495399 L0.12560725,0.660000166 C0.0486570408,0.591378854 0,0.489112188 0,0.374489884 C0,0.167865599 0.158766122,1.90086739e-05 0.354655764,1.90086739e-05 L4.75289183,1.90086739e-05 C4.84570063,1.90086739e-05 4.93021971,0.0374660962 4.99329365,0.0988641129 L13.2905806,7.71716044 C13.3657287,7.78559166 13.4131242,7.88652772 13.4131242,7.99962933 C13.4131242,8.11292103 13.3655485,8.21461743 13.2900399,8.28342883 L4.99257281,15.9015351 Z M16.7182889,15.8922969 L12.4510664,11.9744191 C12.3733954,11.9052275 12.3243779,11.8025807 12.3243779,11.6873881 C12.3243779,11.590634 12.3593389,11.5024337 12.4164659,11.4359033 L14.6127005,9.41946322 C14.6775766,9.34437896 14.7712864,9.29704736 14.8754485,9.29704736 C14.9734835,9.29704736 15.0619672,9.33886644 15.1263026,9.40615715 L21.574622,15.3275492 C21.6595015,15.3959804 21.7142857,15.5039496 21.7142857,15.6254151 C21.7142857,15.8320394 21.5555196,15.9998859 21.35963,15.9998859 L16.9669804,15.9998859 C16.870207,15.9998859 16.7822639,15.9588272 16.7182889,15.8922969 Z M16.7182889,0.107399008 C16.7822639,0.0410587356 16.870207,0 16.9669804,0 L21.35963,0 C21.5555196,0 21.7142857,0.16784659 21.7142857,0.374470876 C21.7142857,0.495936302 21.6595015,0.603715483 21.574622,0.672146709 L15.1263026,6.59353871 C15.0619672,6.66101951 14.9734835,6.70283859 14.8754485,6.70283859 C14.7712864,6.70283859 14.6775766,6.65569708 14.6127005,6.58042273 L12.4164659,4.5639826 C12.3593389,4.49745224 12.3243779,4.409252 12.3243779,4.31249785 C12.3243779,4.19749537 12.3733954,4.09465844 12.4510664,4.02565696 L16.7182889,0.107399008 Z" id="Logo" fill="#4D5969"></path>
                <text id="demo-ahv" font-family="NutanixSoft-Semibold, Nutanix Soft" font-size="14" font-weight="500" line-spacing="10" fill="#FFFFFF">
                    <tspan x="42" y="17">demo-ahv</tspan>
                </text>
            </g>
            <g id="Right" transform="translate(259.000000, 24.000000)">
                <g id="Standard-/-Search">
                    <mask id="mask-2" fill="white">
                        <use xlink:href="#path-1"></use>
                    </mask>
                    <g id="Mask" fill-rule="nonzero"></g>
                    <g id="Icon-/-Dark-Bg-/-Primary" mask="url(#mask-2)" fill="#9AA5B5" fill-rule="evenodd">
                        <g id="Color-/-Grey-3">
                            <rect id="Color" x="0" y="0" width="12" height="12"></rect>
                        </g>
                    </g>
                </g>
                <g id="Standard-/-Question-Mark" transform="translate(32.000000, 0.000000)">
                    <mask id="mask-4" fill="white">
                        <use xlink:href="#path-3"></use>
                    </mask>
                    <g id="Mask" fill-rule="nonzero"></g>
                    <g id="Icon-/-Dark-Bg-/-Primary" mask="url(#mask-4)" fill="#9AA5B5" fill-rule="evenodd">
                        <g id="Color-/-Grey-3">
                            <rect id="Color" x="0" y="0" width="12" height="12"></rect>
                        </g>
                    </g>
                </g>
                <g id="Standard-/-Settings" transform="translate(64.000000, 0.000000)">
                    <mask id="mask-6" fill="white">
                        <use xlink:href="#path-5"></use>
                    </mask>
                    <g id="Mask"></g>
                    <g id="Icon-/-Dark-Bg-/-Primary" mask="url(#mask-6)" fill="#9AA5B5" fill-rule="evenodd">
                        <g id="Color-/-Grey-3">
                            <rect id="Color" x="0" y="0" width="12" height="12"></rect>
                        </g>
                    </g>
                </g>
            </g>
        </g>
    </g>
</svg>