<svg xmlns="http://www.w3.org/2000/svg" width="126" height="126" viewBox="0 0 126 126"><defs><style>.cls-1,.cls-11,.cls-2,.cls-3,.cls-4,.cls-5{fill:none;}.cls-1,.cls-4{stroke:#d5dae0;}.cls-1,.cls-10,.cls-2,.cls-3,.cls-4,.cls-5,.cls-6,.cls-9{stroke-linecap:round;stroke-linejoin:round;stroke-width:2px;}.cls-1{stroke-dasharray:0 5.98;}.cls-2,.cls-6,.cls-9{stroke:#627386;}.cls-3{stroke:#f2f4f6;}.cls-5{stroke:#fff;}.cls-6,.cls-8{fill:#fff;}.cls-7{fill:#f2f4f6;}.cls-9{fill:#d5dae0;}.cls-10{fill:#d3edfd;stroke:#1b6dc6;}</style></defs><title>alert</title><g id="Layer_2" data-name="Layer 2"><g id="Layer_4" data-name="Layer 4"><ellipse class="cls-1" cx="62.17" cy="95.57" rx="45.18" ry="25.82"/><path class="cls-2" d="M90.29,83c-6.56,0-13.18-5.23-13.18-16.89S84.17,41,93.18,35.8a15.72,15.72,0,0,1,7.89-2.3c6.56,0,13.19,5.22,13.19,16.89S107.2,75.45,98.18,80.66A15.79,15.79,0,0,1,90.29,83Z"/><ellipse class="cls-3" cx="95.68" cy="58.23" rx="20.84" ry="11.79" transform="translate(4.64 123.47) rotate(-66.95)"/><path class="cls-4" d="M103,63.24c-2.23,4.56-5.4,8.49-8.86,10.49A8.05,8.05,0,0,1,90.29,75c-3.82,0-5.18-4.78-5.18-8.88"/><path class="cls-5" d="M79.11,66.07c0-11.13,6.62-23.66,15.07-28.54a13.75,13.75,0,0,1,6.89-2,10,10,0,0,1,8.75,5.06"/><path class="cls-2" d="M90.29,73c-2.2,0-3.18-3.46-3.18-6.88,0-8.25,5.07-18.14,11.07-21.61a6,6,0,0,1,2.89-1c2.2,0,3.18,3.46,3.18,6.89,0,8.25-5.07,18.14-11.07,21.6A5.85,5.85,0,0,1,90.29,73Z"/><path class="cls-6" d="M28,33.11V92.18c0,10.9,15.3,19.73,34.17,19.73s34.17-8.83,34.17-19.73V33.11Z"/><path class="cls-7" d="M62.17,111.91c18.87,0,34.17-8.83,34.17-19.73V33.11H62.17Z"/><ellipse class="cls-8" cx="62.17" cy="33.11" rx="34.17" ry="19.73"/><path class="cls-2" d="M28,33.11V92.18c0,10.9,15.3,19.73,34.17,19.73s34.17-8.83,34.17-19.73V33.11"/><ellipse class="cls-6" cx="62.17" cy="33.11" rx="28.01" ry="15.01"/><path class="cls-7" d="M62.17,18.11h0c-15.47,0-28,6.72-28,15s12.55,15,28,15h0Z"/><ellipse class="cls-9" cx="62.17" cy="38.13" rx="26.4" ry="9.99"/><ellipse class="cls-2" cx="62.17" cy="33.11" rx="28.01" ry="15.01"/><path class="cls-2" d="M28,33.11c0-4.49,2.6-8.64,7-11.95a37.57,37.57,0,0,1,13-6,57.65,57.65,0,0,1,28.43,0,37.49,37.49,0,0,1,13,6c4.39,3.31,7,7.46,7,12"/><path class="cls-4" d="M92,42.7a28.62,28.62,0,0,1-8.89,6,45.59,45.59,0,0,1-10.27,3.17,57.54,57.54,0,0,1-10.71,1,57.57,57.57,0,0,1-10.72-1,45.59,45.59,0,0,1-10.27-3.17,28.56,28.56,0,0,1-8.88-6"/><path class="cls-2" d="M45.45,44.58c-.54-1.39-1.81-1.86-3.29-1-2,1.14-3.56,4.18-3.56,6.81"/><path class="cls-10" d="M44.77,87.74c0,1.47-.89,2.15-2,1.51l-3.69-2.13L35.39,85a4.79,4.79,0,0,1-2-3.83v-11a5.8,5.8,0,0,1,.89-3.37l2.95-4.13c.89-1.25,2.83-.13,3.71,2.14l3,7.54a12.28,12.28,0,0,1,.89,4.39Z"/><line class="cls-2" x1="38.6" y1="50.38" x2="38.6" y2="65.15"/><line class="cls-10" x1="38.6" y1="71.28" x2="38.6" y2="76.63"/><line class="cls-10" x1="38.6" y1="80.79" x2="38.6" y2="80.63"/><rect class="cls-11" width="126" height="126"/></g></g></svg>