<svg xmlns="http://www.w3.org/2000/svg" width="126" height="126" viewBox="0 0 126 126"><defs><style>.cls-1,.cls-10,.cls-4,.cls-7{fill:none;}.cls-2{fill:#d5dae0;}.cls-2,.cls-4,.cls-9{stroke:#627386;}.cls-10,.cls-2,.cls-4,.cls-5,.cls-7,.cls-8,.cls-9{stroke-linecap:round;stroke-linejoin:round;stroke-width:2px;}.cls-3{fill:#f2f4f6;}.cls-5{fill:#d3edfd;}.cls-10,.cls-5,.cls-7,.cls-8{stroke:#1b6dc6;}.cls-6{fill:#91d2fb;}.cls-8{fill:#e9f6fe;}.cls-9{fill:#fff;}.cls-10{stroke-dasharray:0 6.06;}</style></defs><title>applications</title><g id="Layer_2" data-name="Layer 2"><g id="Layer_1-2" data-name="Layer 1"><rect class="cls-1" width="126" height="126"/><path class="cls-2" d="M108.83,76.94,92.14,67.3a1.29,1.29,0,0,0-.23-.39c-.5-.46-9.72-.67-9.72-.67v11.2h0c0,.42.47.82,1.27,1a9.25,9.25,0,0,1,3.24,1.08,4.07,4.07,0,0,1,2,2.27L63,76.94v11.2l7.48-.48H65.64v11.2h0a3.29,3.29,0,0,0,1.56,2.6c2.75,2,7.78,2.11,10.81.36A4.35,4.35,0,0,0,79.88,100c.34-.72,1.87-1,2.79-.46l8.79,5.08L118.35,89a1.11,1.11,0,0,0,.65-.9V76.94Z"/><path class="cls-3" d="M97.4,70.33l-5.26-3a1.29,1.29,0,0,0-.23-.39c-.5-.46-9.72-.67-9.72-.67v11.2h0c0,.42.47.82,1.27,1,1.19.18,2.31-4.26,3.24-3.72,1.11.64,1.78,6.24,2,7.07l-14.79-4.8v3.81H97.4Z"/><path class="cls-4" d="M108.83,76.94,92.14,67.3a1.29,1.29,0,0,0-.23-.39c-.5-.46-9.72-.67-9.72-.67v11.2h0c0,.42.47.82,1.27,1a9.25,9.25,0,0,1,3.24,1.08,4.07,4.07,0,0,1,2,2.27L63,76.94v11.2l7.48-.48H65.64v11.2h0a3.29,3.29,0,0,0,1.56,2.6c2.75,2,7.78,2.11,10.81.36A4.35,4.35,0,0,0,79.88,100c.34-.72,1.87-1,2.79-.46l8.79,5.08L118.35,89a1.11,1.11,0,0,0,.65-.9V76.94Z"/><path class="cls-5" d="M80.37,25.3l-15.8-9.12a3.47,3.47,0,0,0-3.14,0L45.63,25.3,34.54,30.1h0V41.3l8.79,5.08a2.38,2.38,0,0,0,1.19.28,1.8,1.8,0,0,0,1.6-.74A4.4,4.4,0,0,1,48,44.05c.19-.11.39-.21.6-.31l.15-.06c.17-.07.33-.15.5-.21l.15,0,.55-.17.12,0,.6-.15h.08l.68-.12h0l.74-.08h0a13.19,13.19,0,0,1,1.54,0v2.73h0V52a.84.84,0,0,0,.49.69L63,57.74h0l8.78-5.07A2.33,2.33,0,0,1,73,52.38a1.76,1.76,0,0,1,1.59.7,4.84,4.84,0,0,0,2.61,2.27,11.69,11.69,0,0,0,8.9,0c1.84-.84,2.74-2.06,2.74-3.28h0v-9.2l2.64-1.53V30.1h0Z"/><path class="cls-6" d="M72.73,52.4v-22H63V57.74l8.78-5.07A2.24,2.24,0,0,1,72.73,52.4Z"/><path class="cls-6" d="M44.73,30.1V46.64a1.69,1.69,0,0,0,1.39-.72A4.4,4.4,0,0,1,48,44.05a11.48,11.48,0,0,1,8.31-.8l5.13-2.5V21L45.63,30.1Z"/><path class="cls-6" d="M88.82,40.83H86.33V55.18c1.65-.84,2.48-2,2.48-3.15h0Z"/><polygon class="cls-6" points="86.33 44.27 91.46 41.3 91.46 30.1 86.33 30.1 86.33 44.27"/><path class="cls-7" d="M80.37,25.3l-15.8-9.12a3.47,3.47,0,0,0-3.14,0L45.63,25.3,34.54,30.1h0V41.3l8.79,5.08a2.38,2.38,0,0,0,1.19.28,1.8,1.8,0,0,0,1.6-.74A4.4,4.4,0,0,1,48,44.05c.19-.11.39-.21.6-.31l.15-.06c.17-.07.33-.15.5-.21l.15,0,.55-.17.12,0,.6-.15h.08l.68-.12h0l.74-.08h0a13.19,13.19,0,0,1,1.54,0v2.73h0V52a.84.84,0,0,0,.49.69L63,57.74h0l8.78-5.07A2.33,2.33,0,0,1,73,52.38a1.76,1.76,0,0,1,1.59.7,4.84,4.84,0,0,0,2.61,2.27,11.69,11.69,0,0,0,8.9,0c1.84-.84,2.74-2.06,2.74-3.28h0v-9.2l2.64-1.53V30.1h0Z"/><path class="cls-8" d="M58.87,38.36a8.74,8.74,0,0,1-3.94,1.5c-1.23.18-1.6,1.09-.71,1.61L63,46.54l8.78-5.07c.89-.52,2.46-.3,2.78.41a4.84,4.84,0,0,0,2.61,2.27,11.68,11.68,0,0,0,8.9,0c3.45-1.59,3.66-4.49.63-6.24a9.25,9.25,0,0,0-3.24-1.08c-1.25-.2-1.71-1.08-.79-1.61l8.79-5.08L64.57,14.58a3.47,3.47,0,0,0-3.14,0L34.54,30.1l8.79,5.08c.92.53,2.45.27,2.79-.46A4.4,4.4,0,0,1,48,32.85c3-1.75,8.06-1.63,10.81.37C60.85,34.7,60.88,36.85,58.87,38.36Z"/><path class="cls-2" d="M57.8,81.74l-3.58,1.33c-.89-.52-.51-1.42.71-1.61a8.82,8.82,0,0,0,4-1.5,3.23,3.23,0,0,0,1.48-2.54h0V66.22l-11.83.69-1.14,3.14a4,4,0,0,0-1.27,1.47c-.34.73-1.87,1-2.79.46l-8.79-5.07-20.78,12L7,76.94v11.2a1.11,1.11,0,0,0,.65.9l26.89,15.53,8.79-5.07a.83.83,0,0,0,.48-.67h0v-6.4l-4.76-1.38a6.11,6.11,0,0,1,.88-.49,11.72,11.72,0,0,1,8.9,0,4.84,4.84,0,0,1,2.61,2.27c.32.71,1.89.93,2.78.41L63,88.14v-6.4Z"/><path class="cls-3" d="M41.13,85.32V70.71l-6.59-3.8-20.78,12L7,76.94v11.2a1.11,1.11,0,0,0,.65.9l26.89,15.53,6.59-3.8V86.85l-2.08-.6a6.11,6.11,0,0,1,.88-.49A10.62,10.62,0,0,1,41.13,85.32Z"/><path class="cls-4" d="M57.8,81.74l-3.58,1.33c-.89-.52-.51-1.42.71-1.61a8.82,8.82,0,0,0,4-1.5,3.23,3.23,0,0,0,1.48-2.54h0V66.22l-11.83.69-1.14,3.14a4,4,0,0,0-1.27,1.47c-.34.73-1.87,1-2.79.46l-8.79-5.07-20.78,12L7,76.94v11.2a1.11,1.11,0,0,0,.65.9l26.89,15.53,8.79-5.07a.83.83,0,0,0,.48-.67h0V87.63l-4.76-1.38a6.11,6.11,0,0,1,.88-.49,11.72,11.72,0,0,1,8.9,0c1.36.6,2.23,6.21,2.61,7.07.32.71,1.89.93,2.78.41L63,88.14V76.94Z"/><path class="cls-2" d="M65.74,93.37a3.6,3.6,0,0,1,1.39-1.85A8.63,8.63,0,0,1,71.07,90c.77-.11,1.2-.51,1.2-.92h0v-6.4l-35.09,0V89h0a3.56,3.56,0,0,0,2.11,3,9.25,9.25,0,0,0,3.24,1.08,2.33,2.33,0,0,1,.81.29H34.54v11.2l26.89,15.52a3.47,3.47,0,0,0,3.14,0l26.89-15.52V93.37Z"/><path class="cls-3" d="M63,82.68l-25.82,0V89h0a3.56,3.56,0,0,0,2.11,3,9.25,9.25,0,0,0,3.24,1.08,2.33,2.33,0,0,1,.81.29H34.54v11.2l26.89,15.52a3.23,3.23,0,0,0,1.57.38Z"/><path class="cls-4" d="M65.74,93.37a3.6,3.6,0,0,1,1.39-1.85A8.63,8.63,0,0,1,71.07,90c.77-.11,1.2-.51,1.2-.92h0v-6.4l-35.09,0V89h0a3.56,3.56,0,0,0,2.11,3,9.25,9.25,0,0,0,3.24,1.08,2.33,2.33,0,0,1,.81.29H34.54v11.2l26.89,15.52a3.47,3.47,0,0,0,3.14,0l26.89-15.52V93.37Z"/><path class="cls-9" d="M48.83,79.32a4.84,4.84,0,0,1,2.61,2.27c.32.71,1.89.93,2.78.41L63,76.94l-8.78-5.07c-.89-.52-.51-1.42.71-1.61a8.82,8.82,0,0,0,4-1.5c2-1.51,2-3.66-.08-5.14-2.75-2-7.78-2.11-10.81-.37a4.4,4.4,0,0,0-1.87,1.87c-.34.73-1.87,1-2.79.46l-8.79-5.07L7.65,76a1,1,0,0,0,0,1.81L34.54,93.37l8.79-5.07c.92-.54.46-1.42-.79-1.62A9.25,9.25,0,0,1,39.3,85.6c-3-1.74-2.82-4.65.63-6.24A11.72,11.72,0,0,1,48.83,79.32Z"/><path class="cls-9" d="M67.13,85.12a8.63,8.63,0,0,1,3.94-1.51c1.23-.18,1.6-1.09.71-1.61L63,76.94,54.22,82c-.89.52-2.46.3-2.78-.41a4.84,4.84,0,0,0-2.61-2.27,11.72,11.72,0,0,0-8.9,0c-3.45,1.59-3.66,4.5-.63,6.24a9.25,9.25,0,0,0,3.24,1.08c1.25.2,1.71,1.08.79,1.62l-8.79,5.07,26.89,15.52a3.47,3.47,0,0,0,3.14,0L91.46,93.37,82.67,88.3c-.92-.54-2.45-.27-2.79.45A4.35,4.35,0,0,1,78,90.62c-3,1.75-8.06,1.63-10.81-.36C65.15,88.77,65.12,86.62,67.13,85.12Z"/><path class="cls-9" d="M77.17,74.55a4.84,4.84,0,0,1-2.61-2.27c-.32-.71-1.89-.93-2.78-.41L63,76.94,71.78,82c.89.52.51,1.43-.71,1.61a8.72,8.72,0,0,0-3.95,1.51c-2,1.5-2,3.65.08,5.14,2.75,2,7.78,2.11,10.81.36a4.35,4.35,0,0,0,1.87-1.87c.34-.72,1.87-1,2.79-.46l8.79,5.08,26.89-15.53a1,1,0,0,0,0-1.81L91.46,60.51l-8.79,5.07c-.92.53-.46,1.41.79,1.61a9.25,9.25,0,0,1,3.24,1.08c3,1.75,2.82,4.66-.63,6.24A11.63,11.63,0,0,1,77.17,74.55Z"/><line class="cls-7" x1="91.46" y1="30.1" x2="91.46" y2="30.1"/><line class="cls-10" x1="91.46" y1="24.05" x2="91.46" y2="8.9"/><line class="cls-7" x1="91.46" y1="5.87" x2="91.46" y2="5.87"/><line class="cls-7" x1="34.54" y1="30.1" x2="34.54" y2="30.1"/><line class="cls-10" x1="34.54" y1="24.05" x2="34.54" y2="8.9"/><line class="cls-7" x1="34.54" y1="5.87" x2="34.54" y2="5.87"/></g></g></svg>