<svg xmlns="http://www.w3.org/2000/svg" width="126" height="126" viewBox="0 0 126 126"><defs><style>.cls-1{fill:#f2f4f6;}.cls-1,.cls-3,.cls-4,.cls-5,.cls-7{stroke:#627386;}.cls-1,.cls-10,.cls-11,.cls-12,.cls-13,.cls-2,.cls-3,.cls-4,.cls-5,.cls-6,.cls-7,.cls-8,.cls-9{stroke-linecap:round;stroke-linejoin:round;stroke-width:2px;}.cls-10,.cls-12,.cls-13,.cls-14,.cls-2,.cls-3,.cls-6,.cls-8{fill:none;}.cls-2{stroke:#d5dae0;}.cls-4{fill:#b8bfca;}.cls-5{fill:#fff;}.cls-6{stroke:#f2f4f6;}.cls-7{fill:#d5dae0;}.cls-8{stroke:#b8bfca;}.cls-9{fill:#bde4fd;}.cls-10,.cls-11,.cls-13,.cls-9{stroke:#1b6dc6;}.cls-11{fill:#e9f6fe;}.cls-12{stroke:#d3edfd;}.cls-13{stroke-dasharray:0 5.27;}</style></defs><title>categories</title><g id="Layer_2" data-name="Layer 2"><g id="Layer_4" data-name="Layer 4"><path class="cls-1" d="M113.76,90.94c-5.51-6.33-16.86-10.68-30-10.68A50.53,50.53,0,0,0,63,84.45v30.38A50.7,50.7,0,0,0,83.79,119c18.53,0,33.55-8.67,33.55-19.37V90.94Z"/><path class="cls-2" d="M63,84.45v30.38c7.77-3.55,12.76-9,12.76-15.2V90.94H72.18A26.83,26.83,0,0,0,63,84.45Z"/><path class="cls-3" d="M113.76,90.94c-5.51-6.33-16.86-10.68-30-10.68A50.53,50.53,0,0,0,63,84.45v30.38A50.7,50.7,0,0,0,83.79,119c18.53,0,33.55-8.67,33.55-19.37V90.94Z"/><path class="cls-4" d="M63,84.45a50.53,50.53,0,0,0-20.79-4.19c-13.11,0-24.46,4.35-30,10.68H8.66v8.69c0,10.7,15,19.37,33.55,19.37A50.7,50.7,0,0,0,63,114.83Z"/><path class="cls-3" d="M63,84.45a26.74,26.74,0,0,0-9.18,6.49H50.24v8.69c0,6.16,5,11.65,12.76,15.2V84.45Z"/><ellipse class="cls-5" cx="83.79" cy="90.94" rx="33.55" ry="19.37"/><path class="cls-6" d="M63,84.45v21.68A44.52,44.52,0,0,0,71.58,109a13.53,13.53,0,0,0,4.18-9.35V90.94H72.18A26.83,26.83,0,0,0,63,84.45Z"/><ellipse class="cls-6" cx="83.79" cy="95.28" rx="32.69" ry="15.02"/><ellipse class="cls-3" cx="83.79" cy="90.94" rx="33.55" ry="19.37"/><ellipse class="cls-3" cx="42.21" cy="90.94" rx="33.55" ry="19.37"/><ellipse class="cls-7" cx="42.21" cy="90.94" rx="33.55" ry="19.37"/><path class="cls-8" d="M53.82,90.94H50.24v8.69A13.53,13.53,0,0,0,54.42,109,44.52,44.52,0,0,0,63,106.13V84.45A26.83,26.83,0,0,0,53.82,90.94Z"/><ellipse class="cls-8" cx="42.21" cy="95.29" rx="32.69" ry="15.02"/><ellipse class="cls-3" cx="42.21" cy="90.94" rx="33.55" ry="19.37"/><path class="cls-1" d="M63,75.74c-12.88,5.86-16.7,16.44-8.26,24.88A28.21,28.21,0,0,0,63,106.14c12.88-5.86,16.7-16.45,8.26-24.89A28.19,28.19,0,0,0,63,75.74Z"/><path class="cls-2" d="M74.9,95.28a12,12,0,0,1-.75,1.58h0c-.14.25-.28.5-.44.75a.56.56,0,0,0,0,.08c-.15.22-.3.45-.46.67l-.1.13q-.23.31-.48.63l-.09.11a20.14,20.14,0,0,1-1.75,1.85l-.21.19c-.19.18-.4.36-.6.53l-.19.17-.68.53-.15.12c-.24.19-.49.37-.75.56l-.08,0a32.08,32.08,0,0,1-4.55,2.63l-.39.18-.17.08C50.29,100.35,46.41,90,54.42,81.59,64.63,83.89,72.41,89,74.9,95.28Z"/><path class="cls-2" d="M51.1,95.28a12.83,12.83,0,0,0,.76,1.59h0c.14.25.29.49.45.74a.35.35,0,0,0,0,.08c.14.23.3.45.46.67l.09.13.48.63.1.11a17.81,17.81,0,0,0,1.75,1.85l.2.2.61.53.19.16.67.54.15.11c.25.19.5.38.76.56l.08.06a32.46,32.46,0,0,0,4.55,2.62l.38.19.18.07c12.7-5.78,16.58-16.16,8.57-24.54C61.37,83.9,53.6,89,51.1,95.28Z"/><path class="cls-2" d="M63,84.43c-6.15,2.8-10.22,6.67-11.9,10.87a16,16,0,0,0,3.64,5.32A28.21,28.21,0,0,0,63,106.14c6.14-2.8,10.22-6.67,11.9-10.87A15.92,15.92,0,0,0,71.26,90,28.21,28.21,0,0,0,63,84.43Z"/><path class="cls-3" d="M63,75.74c-12.88,5.86-16.7,16.44-8.26,24.88A28.21,28.21,0,0,0,63,106.14c12.88-5.86,16.7-16.45,8.26-24.89A28.19,28.19,0,0,0,63,75.74Z"/><line class="cls-3" x1="63" y1="106.14" x2="63" y2="114.83"/><path class="cls-9" d="M93,38C87.46,31.7,76.11,27.36,63,27.36S38.54,31.7,33,38H29.45v8.7c0,10.69,15,19.37,33.55,19.37s33.55-8.68,33.55-19.37V38Z"/><path class="cls-10" d="M93,38C87.46,31.7,76.11,27.36,63,27.36S38.54,31.7,33,38H29.45v8.7c0,10.69,15,19.37,33.55,19.37s33.55-8.68,33.55-19.37V38Z"/><ellipse class="cls-11" cx="63" cy="38.03" rx="33.55" ry="19.37"/><ellipse class="cls-12" cx="63" cy="42.38" rx="32.69" ry="15.02"/><ellipse class="cls-10" cx="63" cy="38.03" rx="33.55" ry="19.37"/><line class="cls-10" x1="96.55" y1="28.06" x2="96.55" y2="28.06"/><line class="cls-13" x1="96.55" y1="22.8" x2="96.55" y2="9.63"/><line class="cls-10" x1="96.55" y1="7" x2="96.55" y2="7"/><line class="cls-10" x1="29.45" y1="28.06" x2="29.45" y2="28.06"/><line class="cls-13" x1="29.45" y1="22.8" x2="29.45" y2="9.63"/><line class="cls-10" x1="29.45" y1="7" x2="29.45" y2="7"/><rect class="cls-14" width="126" height="126"/></g></g></svg>