<svg xmlns="http://www.w3.org/2000/svg" width="126" height="126" viewBox="0 0 126 126"><defs><style>.cls-1,.cls-12,.cls-4,.cls-6,.cls-7,.cls-8{fill:none;}.cls-2,.cls-9{fill:#d5dae0;}.cls-2,.cls-3,.cls-5,.cls-6{stroke:#627386;}.cls-10,.cls-11,.cls-12,.cls-13,.cls-2,.cls-3,.cls-4,.cls-5,.cls-6,.cls-7,.cls-8{stroke-linecap:round;stroke-linejoin:round;stroke-width:2px;}.cls-3{fill:#f2f4f6;}.cls-4{stroke:#d5dae0;}.cls-13,.cls-5{fill:#fff;}.cls-10,.cls-11,.cls-13,.cls-7,.cls-8{stroke:#1b6dc6;}.cls-8{stroke-dasharray:0 5.82;}.cls-10,.cls-14{fill:#bde4fd;}.cls-11{fill:#e9f6fe;}.cls-12{stroke:#bde4fd;}</style></defs><title>clusters</title><g id="Layer_2" data-name="Layer 2"><g id="Layer_4" data-name="Layer 4"><rect class="cls-1" width="126" height="126"/><rect class="cls-1" width="126" height="126"/><rect class="cls-1" width="126" height="126"/><polygon class="cls-2" points="97.3 94.59 63 114.4 63 102.96 97.3 83.16 97.3 94.59"/><polygon class="cls-3" points="28.7 94.59 63 114.4 63 102.96 28.7 83.16 28.7 94.59"/><polygon class="cls-4" points="37.02 99.4 54.68 109.59 54.68 104.31 37.02 94.12 37.02 99.4"/><line class="cls-4" x1="33.2" y1="91.91" x2="33.1" y2="91.85"/><polygon class="cls-5" points="97.3 83.16 63 63.36 28.7 83.16 63 102.96 97.3 83.16"/><polygon class="cls-6" points="28.7 94.59 63 114.4 63 102.96 28.7 83.16 28.7 94.59"/><line class="cls-7" x1="28.7" y1="42.65" x2="28.7" y2="42.65"/><line class="cls-8" x1="28.7" y1="48.46" x2="28.7" y2="68.82"/><line class="cls-7" x1="28.7" y1="71.73" x2="28.7" y2="71.73"/><line class="cls-7" x1="97.3" y1="42.65" x2="97.3" y2="42.65"/><line class="cls-8" x1="97.3" y1="48.46" x2="97.3" y2="68.82"/><line class="cls-7" x1="97.3" y1="71.73" x2="97.3" y2="71.73"/><polygon class="cls-2" points="97.3 83.16 63 102.96 63 91.53 97.3 71.73 97.3 83.16"/><polygon class="cls-3" points="28.7 83.16 63 102.96 63 91.53 28.7 71.73 28.7 83.16"/><polygon class="cls-4" points="37.02 87.97 54.68 98.16 54.68 92.87 37.02 82.68 37.02 87.97"/><line class="cls-4" x1="33.2" y1="80.48" x2="33.1" y2="80.42"/><polygon class="cls-5" points="97.3 71.73 63 51.92 28.7 71.73 63 91.53 97.3 71.73"/><polygon class="cls-6" points="28.7 83.16 63 102.96 63 91.53 28.7 71.73 28.7 83.16"/><path class="cls-9" d="M51.84,72.61a.7.7,0,0,1-.23-.06l-3.36-1.94c-.1-.06-.15-.15-.1-.23a.43.43,0,0,1,.39-.15l11.27.56c.25,0,.46-.11.44-.25L59.33,64a.19.19,0,0,1,.15-.2.64.64,0,0,1,.49,0L63.2,65.7a.2.2,0,0,1,.11.13l1,7.08V73c0,.11-.14.2-.33.2h-.12Z"/><path class="cls-9" d="M66.14,73.07c0,.11.17.21.37.21l9.78.53a.58.58,0,0,0,.35-.09c.11-.09.09-.21,0-.28l-3.22-1.87a.61.61,0,0,0-.24-.06l-6.8-.4c-.25,0-.46.11-.44.25Z"/><path class="cls-9" d="M64.18,74.18c.2,0,.36.1.37.21l1,5.69c0,.08,0,.16-.16.2a.6.6,0,0,1-.49,0L61.68,78.4a.24.24,0,0,1-.11-.14L61,74.32c0-.14.18-.26.43-.25Z"/><polygon class="cls-10" points="97.3 42.65 63 62.45 63 51.02 97.3 31.21 97.3 42.65"/><polygon class="cls-11" points="28.7 42.65 63 62.45 63 51.02 28.7 31.21 28.7 42.65"/><polygon class="cls-12" points="37.02 47.45 54.68 57.64 54.68 52.36 37.02 42.17 37.02 47.45"/><polygon class="cls-13" points="97.3 31.21 63 11.41 28.7 31.21 63 51.02 97.3 31.21"/><polygon class="cls-7" points="28.7 42.65 63 62.45 63 51.02 28.7 31.21 28.7 42.65"/><line class="cls-12" x1="33.2" y1="39.96" x2="33.1" y2="39.9"/><path class="cls-14" d="M51.84,31.77a.41.41,0,0,1-.23-.06l-3.36-1.93c-.1-.06-.15-.16-.1-.24a.45.45,0,0,1,.39-.14L59.81,30c.25,0,.46-.11.44-.26l-.92-6.52a.21.21,0,0,1,.15-.21A.63.63,0,0,1,60,23l3.23,1.86a.24.24,0,0,1,.11.14l1,7.07v.07c0,.11-.14.2-.33.2h-.12Z"/><path class="cls-14" d="M66.14,32.24c0,.11.17.2.37.21l9.78.52a.47.47,0,0,0,.35-.09c.11-.09.09-.2,0-.28l-3.22-1.86a.48.48,0,0,0-.24-.06l-6.8-.4c-.25,0-.46.1-.44.25Z"/><path class="cls-14" d="M64.18,33.35c.2,0,.36.1.37.21l1,5.69a.21.21,0,0,1-.16.2.64.64,0,0,1-.49,0l-3.22-1.87a.2.2,0,0,1-.11-.13L61,33.49c0-.15.18-.27.43-.25Z"/></g></g></svg>